<svg version="1.1" xmlns="http://www.w3.org/2000/svg" style="display: block;" viewBox="0 0 2008 2008" width="502" height="502">
<path transform="translate(0,0)" fill="rgb(0,0,0)" d="M 569.022 688.464 C 575.471 692.827 581.275 698.779 587.06 703.989 C 607.062 722.001 625.804 741.315 644.818 760.356 L 775.026 890.616 L 995.187 1110.77 L 1059.53 1175.11 C 1083.16 1198.75 1105.97 1221.43 1126.13 1248.23 C 1125.32 1250.8 1126.44 1254.2 1126.32 1257.08 C 1125.29 1281.83 1124.92 1306.23 1124.87 1331 L 1124.52 1571.9 L 1124.53 1647.86 C 1124.54 1663.61 1125.2 1679.77 1123.85 1695.47 C 1122.07 1716.07 1113.12 1733.74 1097.13 1747.05 C 1080.26 1761.1 1053.55 1767.23 1032.66 1758.86 C 1008.53 1749.19 947.544 1691.43 923.701 1670.82 L 681.143 1460.74 L 610.181 1399.19 C 596.211 1386.97 582.378 1373.53 567.357 1362.64 C 558.423 1356.17 550.238 1353.74 539.383 1352.44 C 528.462 1351.13 517.004 1351.85 506.014 1351.88 L 451.289 1351.95 L 243.214 1351.94 L 181.499 1352.05 C 168.054 1352.1 154.179 1352.75 140.79 1351.38 C 122.774 1349.53 103.717 1342.08 92.1908 1327.27 C 82.7625 1315.15 77.5679 1302.29 75.9501 1287.02 C 72.5073 1254.52 74.8454 1217.53 74.8524 1184.48 L 74.8587 990.124 L 74.829 837.941 C 74.7747 810.084 72.2509 779.687 76.301 752.155 C 79.652 729.376 95.909 706.264 117.807 697.776 C 140.06 689.151 213.684 692.798 241.669 692.801 L 455.759 692.666 C 485.392 692.629 514.931 692.574 544.556 692.011 C 551.53 691.879 558.69 692.636 565.594 692.315 C 567.616 692.221 568.264 692.296 569.93 691.051 L 569.022 688.464 z"/>
<path transform="translate(0,0)" fill="rgb(255,0,0)" d="M 61.1226 11.8216 C 67.07 13.1635 105.962 13.0685 112.234 12.1419 C 121.657 14.7777 131.552 18.9175 139.353 24.9231 C 151.795 34.5011 163.006 47.5463 174.107 58.6807 L 237.424 122.208 L 542.849 427.534 L 639.766 524.392 C 654.379 538.992 669.929 556.893 685.618 569.936 C 688.792 572.575 691.969 573.218 695.975 573.624 C 727.357 550.74 756.412 523.373 785.831 498 L 937.201 367.356 L 982.355 328.309 C 995.464 316.989 1008.58 304.444 1023.79 295.988 C 1036.64 288.847 1050.96 286.939 1065.39 289.15 C 1083.78 291.968 1101.24 303.074 1112.11 318.13 C 1118.95 327.606 1122.03 339.062 1123.4 350.527 C 1125.64 369.327 1124.66 389.02 1124.63 407.951 L 1124.47 497.645 L 1124.53 838.334 L 1124.33 951.197 C 1124.4 964.87 1123.15 979.277 1124.27 992.861 C 1124.73 998.497 1125.64 1003.72 1128.71 1008.58 C 1140.72 1029.31 1184.72 1069.49 1203.94 1088.64 C 1231.1 1115.7 1257.78 1146.28 1288.5 1169.23 C 1301.56 1186.1 1316.36 1200.62 1331.39 1215.66 C 1351.56 1235.82 1371.37 1255.1 1393.3 1273.35 C 1401.99 1282.79 1409.5 1293.11 1418.03 1302.63 C 1426.38 1311.95 1435.78 1320.53 1444.64 1329.37 C 1459.38 1344.09 1474.77 1361.51 1492.55 1372.69 C 1507.53 1393.34 1526.37 1410.73 1544.39 1428.67 C 1560.18 1444.39 1576.54 1462.48 1595.37 1474.63 C 1600.77 1489.14 1639.67 1525.5 1652.5 1536.75 C 1660.29 1543.58 1668.66 1549.23 1675.67 1556.96 C 1691.22 1575.74 1708.21 1592.64 1725.5 1609.79 C 1742.05 1626.22 1758.74 1643.14 1777.8 1656.72 C 1788.65 1677.61 1809.42 1694.23 1825.98 1710.74 L 1932.64 1817.33 C 1949.73 1834.41 1971.39 1852.68 1985.51 1871.87 C 1990.84 1879.12 1992.77 1886.68 1995.39 1895.18 C 1995.8 1904.6 1996.59 1914.24 1996.23 1923.66 C 1995.88 1932.69 1993.79 1942.63 1994.83 1951.56 C 1988.66 1967.23 1984.84 1981.12 1968.02 1988.48 C 1961.38 1991.38 1954.34 1993.61 1947.53 1996.09 C 1939.95 1994.13 1928.52 1996.78 1920.43 1996.63 C 1912.56 1996.49 1903.69 1993.86 1896.08 1994.99 C 1884.86 1992.88 1874.38 1987.87 1865.68 1980.48 C 1843.75 1961.59 1823.71 1939.27 1803.22 1918.75 L 1680.56 1795.93 C 1658.24 1773.78 1631.72 1756.91 1609.92 1734.35 C 1592.56 1716.39 1579.46 1695.18 1561.99 1677.53 C 1538.55 1653.86 1515.4 1628.94 1490.68 1606.67 C 1473.28 1590.99 1453.67 1578.38 1437.07 1561.63 C 1422.62 1547.07 1412.02 1530.11 1398.38 1515.03 C 1369.02 1482.58 1337 1451.62 1305.6 1421.13 C 1285.65 1401.75 1262.35 1386.64 1242.62 1367.05 C 1227.48 1352.02 1216.67 1335.84 1203.16 1319.82 C 1188.15 1302.01 1145.38 1257.95 1126.13 1248.23 C 1105.97 1221.43 1083.16 1198.75 1059.53 1175.11 L 995.187 1110.77 L 775.026 890.616 L 644.818 760.356 C 625.804 741.315 607.062 722.001 587.06 703.989 C 581.275 698.779 575.471 692.827 569.022 688.464 C 568.786 688.296 568.545 688.136 568.315 687.961 C 567.932 687.669 567.562 687.361 567.184 687.064 C 558.829 680.509 554.48 669.623 546.855 662.147 L 411.818 527.299 L 157.447 272.908 L 74.293 189.771 C 59.6098 175.09 44.1998 160.724 30.18 145.425 C 21.5433 136 16.9419 125.615 12.6127 113.712 C 12.3913 105.528 10.8447 97.4279 10.6698 89.1917 C 10.4416 78.4472 11.8326 67.9285 12.203 57.2473 C 14.5962 51.0857 17.1458 44.7593 20.0665 38.8315 C 28.4375 21.8418 44.5233 17.2396 61.1226 11.8216 z"/>
<path transform="translate(0,0)" fill="rgb(0,0,0)" d="M 695.975 573.624 C 727.357 550.74 756.412 523.373 785.831 498 L 937.201 367.356 L 982.355 328.309 C 995.464 316.989 1008.58 304.444 1023.79 295.988 C 1036.64 288.847 1050.96 286.939 1065.39 289.15 C 1083.78 291.968 1101.24 303.074 1112.11 318.13 C 1118.95 327.606 1122.03 339.062 1123.4 350.527 C 1125.64 369.327 1124.66 389.02 1124.63 407.951 L 1124.47 497.645 L 1124.53 838.334 L 1124.33 951.197 C 1124.4 964.87 1123.15 979.277 1124.27 992.861 C 1124.73 998.497 1125.64 1003.72 1128.71 1008.58 C 1118.56 999.315 1107.82 990.731 1097.79 981.328 C 1066.2 951.702 1036.07 920.227 1005.43 889.596 L 838.209 722.337 L 761.211 645.379 C 739.981 624.162 710.505 599.452 695.975 573.624 z"/>
<path transform="translate(0,0)" fill="rgb(0,0,0)" d="M 1675.67 1556.96 C 1684.01 1534.13 1697.73 1513.82 1708.95 1492.3 C 1728.71 1454.4 1746.82 1416.2 1761.85 1376.12 C 1855.82 1128.44 1846.43 853.397 1735.78 612.698 C 1713.09 563.773 1686.64 516.678 1656.67 471.837 C 1640.74 447.913 1608.1 411.899 1598.41 386.958 C 1592.38 371.433 1592.17 354.254 1597.81 338.586 C 1604.2 321.059 1618.61 306.981 1635.51 299.425 C 1651.76 292.162 1669.44 292.541 1685.84 299.101 C 1714.46 310.543 1735.65 345.198 1752.8 369.501 C 1802.89 439.164 1844.9 514.295 1878.03 593.447 C 1992.74 869.259 1993.1 1179.36 1879.03 1455.44 C 1859.24 1502.83 1836.4 1548.89 1810.65 1593.33 C 1805.54 1602.19 1800.46 1611.15 1794.82 1619.68 C 1789.4 1627.89 1783.2 1635.82 1778.77 1644.63 C 1776.44 1649.23 1776.45 1651.85 1777.8 1656.72 C 1758.74 1643.14 1742.05 1626.22 1725.5 1609.79 C 1708.21 1592.64 1691.22 1575.74 1675.67 1556.96 z"/>
<path transform="translate(0,0)" fill="rgb(0,0,0)" d="M 1492.55 1372.69 C 1498.94 1355.12 1507.49 1338.63 1514.6 1321.39 C 1528.75 1287.09 1540.85 1252.98 1550.75 1217.21 C 1555.22 1201.04 1558.12 1184.49 1561.23 1168.02 C 1584.46 1048.23 1578.26 924.594 1543.16 807.731 C 1534.62 779.247 1524.81 750.619 1512.18 723.638 C 1497.98 693.284 1482.85 663.27 1465.18 634.758 C 1451.33 612.414 1427.56 584.9 1419.25 561.026 C 1414.55 547.541 1414.27 532.409 1419.18 518.942 C 1425.52 501.521 1440.19 485.156 1457.05 477.342 C 1472.47 470.195 1491.7 470.19 1507.52 476.075 C 1517.4 479.748 1525.99 486.24 1533.34 493.691 C 1544.31 504.794 1552.96 518.357 1561.66 531.249 C 1590.34 573.45 1615.18 618.132 1635.9 664.761 C 1731.54 879.919 1737.96 1124.23 1653.74 1344.11 C 1642.17 1374.21 1628.2 1403.65 1613.99 1432.57 C 1608.74 1443.26 1601.85 1453.42 1597.33 1464.42 C 1595.98 1467.72 1595.63 1471.11 1595.37 1474.63 C 1576.54 1462.48 1560.18 1444.39 1544.39 1428.67 C 1526.37 1410.73 1507.53 1393.34 1492.55 1372.69 z"/>
<path transform="translate(0,0)" fill="rgb(0,0,0)" d="M 1288.5 1169.23 C 1289.35 1162.45 1291.37 1155.72 1292.74 1149.01 C 1296.81 1129.01 1301.35 1108.93 1304.27 1088.73 C 1316.43 1001.84 1303.52 913.273 1267.06 833.463 C 1254.11 805.018 1227.1 772.127 1223.25 741.844 C 1220.2 717.899 1229.65 695.355 1248.77 680.507 C 1262.26 670.03 1280.33 663.545 1297.5 666.006 C 1319.12 669.103 1336.53 681.595 1349.2 698.926 C 1361.21 715.352 1370.96 733.77 1380.47 751.709 C 1440.78 865.484 1458.5 998.109 1438.23 1124.6 C 1432 1163.49 1421.32 1199.99 1408.82 1237.27 C 1406.02 1245.6 1393.1 1266.9 1393.3 1273.35 C 1371.37 1255.1 1351.56 1235.82 1331.39 1215.66 C 1316.36 1200.62 1301.56 1186.1 1288.5 1169.23 z"/>
</svg>