<svg version="1.1" xmlns="http://www.w3.org/2000/svg" style="display: block;" viewBox="0 0 1952 1528" width="488" height="382">
<path transform="translate(0,0)" fill="rgb(0,0,0)" d="M 1015.44 29.4281 C 1026.49 28.9554 1038.19 30.5589 1048.34 35.1032 C 1063.91 42.0804 1077.11 55.3803 1082.99 71.4782 C 1085.79 79.1609 1087.21 87.2733 1087.88 95.4046 C 1090.32 125.124 1088.56 156.031 1088.56 185.882 L 1088.55 357.057 L 1088.55 800.945 L 1088.56 1218.01 L 1088.57 1354.01 C 1088.59 1377.46 1089.36 1401.09 1088.54 1424.52 C 1088.08 1437.67 1086.41 1450.38 1080.64 1462.36 C 1072.64 1478.99 1058.59 1492.68 1041 1498.71 C 1025.78 1503.93 1006.17 1503.74 991.571 1496.59 C 968.899 1485.5 914.502 1434.22 892.441 1414.86 L 635.137 1192.04 L 579.244 1143.55 C 560.785 1127.37 541.51 1106.95 519.506 1096.04 C 499.647 1088.61 452.975 1092.03 430.043 1092.03 L 203.486 1091.93 L 142.425 1092.14 C 127.927 1092.21 112.899 1093.1 98.5474 1090.84 C 86.1439 1088.89 75.0954 1083.79 65.3681 1075.88 C 50.4347 1063.75 41.944 1046.99 40.0532 1027.91 C 36.7606 994.687 38.8443 960.023 38.8527 926.611 L 38.8545 744.632 L 38.8318 584.097 C 38.8087 554.818 36.6455 524.002 39.9879 494.936 C 41.5807 481.085 46.2021 469.102 55.175 458.343 C 63.1408 448.791 73.9366 439.904 86.0998 436.514 C 110.898 429.604 157.995 432.895 185.013 432.917 L 395.05 432.91 C 431.631 432.927 468.88 434.593 505.363 432.678 C 511.414 432.36 519.133 431.713 524.7 429.136 C 543.231 420.558 597.66 369.66 616.746 353.134 L 871.953 132.766 L 940.006 73.9329 C 953.856 61.9776 967.661 48.767 983.11 38.9088 C 993.352 32.3738 1003.59 30.5524 1015.44 29.4281 z"/>
<path transform="translate(0,0)" fill="rgb(0,0,0)" d="M 1619.55 34.4222 C 1636.97 34.0418 1652.21 38.0228 1666.33 48.5206 C 1686.5 63.5189 1712.53 102.787 1727.54 124.468 C 1828.3 269.272 1893.36 435.869 1917.4 610.636 C 1958.55 908.467 1879.27 1210.41 1697.13 1449.62 C 1681.15 1470.93 1663.18 1493.78 1635.16 1497.74 C 1616.32 1498.82 1599.9 1494.93 1584.74 1483.28 C 1563.16 1466.7 1552.51 1438.35 1560.13 1411.71 C 1566.8 1388.39 1592.92 1359.16 1607.32 1339.42 C 1616.48 1326.81 1625.18 1313.88 1633.42 1300.65 C 1707.9 1182.19 1752.02 1064.92 1777.14 927.269 C 1786.37 876.71 1789.59 824.05 1789.87 772.705 C 1791.25 602.341 1748.59 434.51 1666.02 285.487 C 1656.15 267.67 1644.98 250.257 1634.22 232.956 C 1621.69 212.818 1608.04 193.971 1593.87 174.981 C 1584.56 162.516 1573.75 149.91 1566.44 136.2 C 1562.3 128.438 1559.59 120.291 1558.46 111.563 C 1556.12 93.595 1560.47 75.7123 1571.65 61.3382 C 1583.65 45.9246 1600.35 36.8956 1619.55 34.4222 z"/>
<path transform="translate(0,0)" fill="rgb(0,0,0)" d="M 1438.84 212.363 C 1454.03 211.75 1467.55 212.957 1480.94 220.793 C 1502.11 233.192 1515.42 255.765 1528.68 275.687 C 1579.27 351.728 1619.88 437.488 1643.63 525.804 C 1665.24 604.408 1676.52 685.491 1677.19 767.009 C 1676.21 923.604 1634.38 1077.23 1555.85 1212.72 C 1540.62 1239.1 1511.27 1289.32 1487.91 1307.03 C 1479.22 1313.61 1470.6 1316.92 1460.21 1319.7 C 1442.17 1322.46 1424.64 1318.95 1409.73 1308.22 C 1388.08 1292.66 1375.81 1265.94 1381.01 1239.41 C 1386.13 1213.25 1413.29 1182.33 1427.81 1159.26 C 1437.13 1144.46 1445.64 1128.8 1453.93 1113.4 C 1490.96 1044.59 1514.5 970.326 1528.09 893.596 C 1558.27 721.783 1527.18 544.826 1440.23 393.595 C 1432.85 380.681 1425.02 368.023 1416.76 355.644 C 1403.76 336.086 1384.24 314.521 1380.52 290.713 C 1377.67 272.52 1382.32 255.427 1393.31 240.746 C 1404.64 225.596 1420.04 215.164 1438.84 212.363 z"/>
<path transform="translate(0,0)" fill="rgb(0,0,0)" d="M 1244.64 406.384 C 1260.48 404.665 1275.59 407.901 1289.34 416.102 C 1322.19 435.695 1358.44 516.35 1372.51 553.215 C 1380.72 574.724 1387.91 597.691 1393.41 620.041 C 1431.53 774.483 1406.89 937.737 1324.89 1074.05 C 1310.14 1098.27 1296.05 1118.57 1266.86 1125.72 C 1250.54 1127.93 1235.91 1125.64 1221.48 1117.42 C 1205.43 1108.26 1193.91 1094.23 1189.05 1076.3 C 1180.94 1046.39 1194.73 1024.2 1209.15 999.406 C 1282.91 872.608 1292.49 726.667 1238.26 590.497 C 1231.69 574.023 1223.97 558.431 1215.16 543.035 C 1205.79 526.683 1194.22 510.946 1189.46 492.45 C 1184.7 473.98 1185.95 456.16 1195.88 439.641 C 1206.95 421.238 1224.17 411.337 1244.64 406.384 z"/>
</svg>